Coordinates
version=1
nRows=24
nColumns=38
inDegrees=no

Units are S.I. units (second, meters, Newtons, ...)
If the header above contains a line with 'inDegrees', this indicates whether rotational values are in degrees (yes) or radians (no).

endheader
time	pelvis_tilt	pelvis_list	pelvis_rotation	pelvis_tx	pelvis_ty	pelvis_tz	hip_flexion_r	hip_adduction_r	hip_rotation_r	knee_angle_r	ankle_angle_r	subtalar_angle_r	mtp_angle_r	hip_flexion_l	hip_adduction_l	hip_rotation_l	knee_angle_l	ankle_angle_l	subtalar_angle_l	mtp_angle_l	lumbar_extension	lumbar_bending	lumbar_rotation	arm_flex_r	arm_add_r	arm_rot_r	elbow_flex_r	pro_sup_r	wrist_flex_r	wrist_dev_r	arm_flex_l	arm_add_l	arm_rot_l	elbow_flex_l	pro_sup_l	wrist_flex_l	wrist_dev_l
22	0.359309	1.45646	0.936239	0.721458	-0.624236	0.960726	0.278438	-0.051065	-0.00416794	0.949129	0.0265968	0	0	0.142472	-0.0170164	-0.298987	0.145093	0.0935816	0	0	-0.17279	0.08905	0.137716	1.07276	-0.288354	0.62827	0.910789	1.5708	0	0	1.01662	-0.105742	0.420704	0.855559	0.830082	0	0
22.01	0.3593	1.45913	0.940033	0.721025	-0.623571	0.960543	0.295002	-0.0487767	0.00379217	0.977639	0.0218561	0	0	0.140777	-0.0146133	-0.296326	0.146896	0.0953538	0	0	-0.171616	0.0836085	0.138478	1.06499	-0.295824	0.619586	0.917951	1.5708	0	0	1.03951	-0.138339	0.737257	0.784836	1.5708	0	0
22.02	0.367402	1.45843	0.935817	0.720456	-0.622457	0.960536	0.311451	-0.04382	0.0101087	1.00018	0.019699	0	0	0.140476	-0.0146127	-0.293632	0.147702	0.0966373	0	0	-0.169801	0.0877802	0.129324	1.06682	-0.290547	0.626499	0.91512	1.5708	0	0	1.01072	-0.107789	0.423712	0.86206	0.836147	0	0
22.03	0.38639	1.45999	0.921313	0.719982	-0.621591	0.960701	0.324467	-0.0393898	0.0148212	1.01979	0.0238383	0	0	0.137189	-0.0142721	-0.290131	0.147118	0.097002	0	0	-0.170454	0.0882335	0.124825	1.06435	-0.291659	0.62552	0.917271	1.5708	0	0	1.00834	-0.108011	0.422151	0.863543	0.829555	0	0
22.04	0.396601	1.46174	0.914854	0.719738	-0.620912	0.960718	0.338186	-0.0354488	0.0199714	1.03799	0.0330143	0	0	0.134383	-0.0133065	-0.28691	0.14658	0.0976507	0	0	-0.169401	0.0845678	0.126017	1.05593	-0.298805	0.615828	0.924621	1.5708	0	0	1.03108	-0.139801	0.734528	0.789697	1.5708	0	0
22.05	0.418121	1.4619	0.896872	0.719402	-0.62002	0.960952	0.350505	-0.0301475	0.0230069	1.04977	0.0427229	0	0	0.131478	-0.0141668	-0.284107	0.145134	0.0977262	0	0	-0.169147	0.0866311	0.122549	1.05318	-0.299563	0.614842	0.926478	1.5708	0	0	1.02624	-0.13787	0.722913	0.789888	1.5708	0	0
22.06	0.431329	1.46155	0.886605	0.719124	-0.61916	0.961154	0.363218	-0.0254038	0.0255781	1.05758	0.0521154	0	0	0.128745	-0.0146351	-0.282146	0.142136	0.0969012	0	0	-0.168055	0.0880013	0.119876	1.04975	-0.300799	0.613321	0.92917	1.5708	0	0	1.0228	-0.13708	0.719059	0.790987	1.5708	0	0
22.07	0.439602	1.46091	0.880893	0.718955	-0.618325	0.961298	0.375898	-0.0202592	0.0289936	1.06196	0.0605411	0	0	0.126367	-0.014987	-0.280752	0.138721	0.095925	0	0	-0.166396	0.0888886	0.117562	1.04589	-0.301855	0.611161	0.932038	1.5708	0	0	1.01974	-0.136586	0.717044	0.792421	1.5708	0	0
22.08	0.446878	1.45986	0.875706	0.718887	-0.617492	0.961464	0.388174	-0.0150306	0.0317846	1.06255	0.0678315	0	0	0.124069	-0.0154804	-0.27916	0.134547	0.0947569	0	0	-0.164416	0.0898866	0.116016	1.04162	-0.303169	0.60871	0.935186	1.5708	0	0	1.01671	-0.135853	0.714986	0.793811	1.5708	0	0
22.09	0.43961	1.45084	0.878335	0.718649	-0.617775	0.961704	0.408989	-0.00632298	0.0332419	1.05653	0.0694678	0	0	0.130995	-0.0206079	-0.279945	0.132491	0.0922947	0	0	-0.1583	0.0960016	0.121306	1.03996	-0.305398	0.608438	0.938219	1.5708	0	0	1.01261	-0.133689	0.708656	0.795489	1.5708	0	0
22.1	0.464431	1.45678	0.862124	0.718895	-0.615788	0.961889	0.410732	-0.00616311	0.0312486	1.05271	0.0786968	0	0	0.119403	-0.0174712	-0.275039	0.125856	0.0920467	0	0	-0.160581	0.0929329	0.1129	1.03267	-0.3054	0.603465	0.942277	1.5708	0	0	1.00939	-0.135217	0.709616	0.799439	1.5708	0	0
22.11	0.455444	1.44765	0.866434	0.718704	-0.616085	0.962126	0.429854	0.00158018	0.0298156	1.0399	0.0795429	0	0	0.126123	-0.0224815	-0.27604	0.122884	0.0891175	0	0	-0.154896	0.0991923	0.117758	1.03148	-0.307195	0.603699	0.945991	1.5708	0	0	1.0046	-0.134423	0.703369	0.804057	1.5708	0	0
22.12	0.461231	1.44507	0.862074	0.718865	-0.615215	0.96231	0.439865	0.00579848	0.0269717	1.02693	0.0846405	0	0	0.124513	-0.0241268	-0.275018	0.118052	0.0875921	0	0	-0.152508	0.101367	0.116415	1.02707	-0.308008	0.601596	0.950765	1.5708	0	0	0.999184	-0.135658	0.698416	0.810903	1.5708	0	0
22.13	0.505572	1.45152	0.827728	0.719076	-0.613013	0.962766	0.435848	0.00576027	0.021035	1.01303	0.0944424	0	0	0.110097	-0.0222058	-0.267989	0.110046	0.0864098	0	0	-0.157564	0.100324	0.106221	1.01969	-0.307633	0.595092	0.957449	1.5708	0	0	0.993588	-0.140136	0.696688	0.821763	1.5708	0	0
22.14	0.524003	1.45	0.811528	0.719236	-0.612019	0.963119	0.441551	0.00876481	0.0148524	0.994065	0.0990826	0	0	0.106272	-0.0242669	-0.265849	0.104911	0.0847307	0	0	-0.157259	0.10298	0.104179	1.015	-0.308606	0.591597	0.963069	1.5708	0	0	0.987887	-0.142798	0.693598	0.829869	1.5708	0	0
22.15	0.546806	1.44833	0.791517	0.719411	-0.610964	0.963501	0.445614	0.011583	0.00662235	0.972015	0.102817	0	0	0.102284	-0.0269093	-0.262934	0.100164	0.0831959	0	0	-0.157413	0.106378	0.101676	1.01043	-0.309371	0.588226	0.96886	1.5708	0	0	0.981379	-0.146199	0.68978	0.839366	1.5708	0	0
22.16	0.574079	1.44636	0.767439	0.719644	-0.609856	0.963946	0.448109	0.0149127	-0.00343885	0.946562	0.105828	0	0	0.0980835	-0.0303074	-0.259421	0.0956816	0.0816713	0	0	-0.157963	0.110472	0.0988577	1.00552	-0.310244	0.584084	0.975417	1.5708	0	0	0.974522	-0.15021	0.686035	0.849828	1.5708	0	0
22.17	0.601308	1.44434	0.743201	0.719958	-0.60876	0.964397	0.449727	0.0182382	-0.0143483	0.918935	0.108526	0	0	0.0938169	-0.0339252	-0.256457	0.0912745	0.0802866	0	0	-0.158732	0.114442	0.0965029	1.0007	-0.311212	0.580314	0.981926	1.5708	0	0	0.967996	-0.153958	0.682415	0.860015	1.5708	0	0
22.18	0.587066	1.43339	0.75153	0.720421	-0.60904	0.964646	0.462793	0.0251057	-0.0272228	0.885728	0.104438	0	0	0.102324	-0.0418081	-0.259004	0.0902896	0.0786165	0	0	-0.15265	0.121885	0.102824	0.998218	-0.313008	0.578736	0.988198	1.5708	0	0	0.961276	-0.154917	0.673791	0.868106	1.5708	0	0
22.19	0.614675	1.4302	0.726597	0.720905	-0.607924	0.965131	0.462843	0.0292395	-0.0407903	0.853297	0.104687	0	0	0.0989837	-0.0469419	-0.25658	0.0870585	0.0778143	0	0	-0.153344	0.127104	0.100483	0.993527	-0.313423	0.576066	0.995541	1.5708	0	0	0.953675	-0.15651	0.662289	0.879406	1.5708	0	0
22.2	0.636509	1.42534	0.707033	0.721411	-0.606566	0.965632	0.463241	0.0343579	-0.0548744	0.818406	0.102892	0	0	0.0968542	-0.0527285	-0.254474	0.0834658	0.0766643	0	0	-0.153243	0.135751	0.0934862	0.992998	-0.308349	0.580484	0.999712	1.5708	0	0	0.917389	-0.133945	0.378805	0.986538	0.866096	0	0
22.21	0.667963	1.42344	0.677761	0.722216	-0.605586	0.966125	0.460772	0.0390376	-0.0684806	0.784171	0.101025	0	0	0.0920121	-0.0577062	-0.252401	0.0805555	0.0759851	0	0	-0.15446	0.137554	0.0979055	0.981593	-0.31573	0.568903	1.01422	1.5708	0	0	0.936376	-0.169126	0.657502	0.909841	1.5708	0	0
22.22	0.692581	1.41887	0.655	0.723024	-0.604368	0.966631	0.459474	0.045442	-0.0827315	0.747854	0.0972401	0	0	0.0890359	-0.0641208	-0.250552	0.0772091	0.0751232	0	0	-0.154135	0.143937	0.0968329	0.974512	-0.316684	0.564577	1.02507	1.5708	0	0	0.923541	-0.176523	0.649183	0.929008	1.5708	0	0
22.23	0.717115	1.41436	0.632378	0.723952	-0.603086	0.967153	0.457189	0.0524833	-0.0967992	0.710857	0.0926331	0	0	0.085468	-0.0707206	-0.249117	0.0734052	0.0741893	0	0	-0.154115	0.150041	0.0962376	0.966303	-0.317717	0.558811	1.03718	1.5708	0	0	0.911557	-0.183554	0.642503	0.949242	1.5708	0	0
